<?xml version="1.0" standalone="no"?>
<!DOCTYPE svg PUBLIC "-//W3C//DTD SVG 20010904//EN"
 "http://www.w3.org/TR/2001/REC-SVG-20010904/DTD/svg10.dtd">
<svg version="1.0" xmlns="http://www.w3.org/2000/svg"
 width="564.000000pt" height="564.000000pt" viewBox="0 0 564.000000 564.000000"
 preserveAspectRatio="xMidYMid meet">
<metadata>
Created by potrace 1.14, written by Peter Selinger 2001-2017
</metadata>
<g transform="translate(0.000000,564.000000) scale(0.100000,-0.100000)"
fill="#000000" stroke="none">
<path d="M0 2820 l0 -2820 2820 0 2820 0 0 2820 0 2820 -2820 0 -2820 0 0
-2820z m2504 1786 c47 -19 104 -72 129 -120 21 -39 22 -56 28 -431 3 -214 4
-454 2 -532 l-4 -143 158 0 158 0 -1 267 c0 148 2 387 5 533 7 300 10 313 92
384 101 86 168 79 439 -42 268 -120 268 -120 339 -335 32 -95 63 -170 78 -188
15 -17 105 -90 201 -162 98 -74 185 -147 198 -167 12 -19 71 -150 130 -290
l108 -255 4 -190 3 -190 -71 -229 c-46 -149 -70 -245 -70 -277 0 -26 7 -127
15 -224 17 -190 13 -229 -29 -291 -11 -17 -107 -112 -211 -210 -105 -97 -250
-234 -323 -303 -78 -74 -153 -135 -180 -148 -61 -29 -123 -29 -364 1 -160 20
-193 27 -233 50 -52 31 -101 92 -114 145 -5 20 -12 251 -15 514 -3 263 -8 481
-10 486 -4 6 -240 8 -291 2 -6 -1 -11 -171 -12 -482 -2 -282 -7 -497 -13 -519
-14 -53 -62 -115 -114 -145 -35 -20 -74 -30 -192 -46 -82 -11 -198 -22 -259
-25 -155 -7 -123 -28 -480 311 -88 83 -207 194 -263 247 -165 152 -170 167
-148 414 24 256 25 246 -54 500 l-70 226 0 182 0 181 115 275 c63 151 123 286
133 300 10 14 95 82 188 152 93 70 183 142 200 161 23 25 45 74 84 192 77 230
56 212 455 387 120 52 192 62 259 34z"/>
<path d="M2348 4586 c-16 -8 -28 -13 -28 -10 0 3 -12 -2 -27 -10 -16 -8 -98
-45 -183 -82 -85 -37 -167 -76 -182 -86 -28 -19 -78 -94 -78 -116 0 -8 26 -12
79 -12 44 0 82 -3 84 -7 3 -5 -34 -7 -83 -5 l-88 3 -22 -68 c-13 -37 -25 -73
-27 -80 -3 -6 4 -13 14 -16 14 -4 14 -5 -4 -6 -16 -1 -23 -7 -23 -22 0 -25
-50 -100 -85 -128 l-26 -20 28 -4 c22 -3 20 -4 -11 -6 -37 -1 -104 -44 -99
-63 2 -4 -4 -8 -12 -8 -17 0 -115 -70 -115 -82 0 -4 -6 -8 -12 -8 -13 -1 -58
-34 -58 -43 0 -3 6 -7 13 -10 6 -2 4 -3 -5 -2 -22 4 -68 -31 -68 -51 0 -8 -4
-14 -10 -14 -5 0 -10 -5 -10 -11 0 -6 -7 -26 -15 -45 -8 -19 -22 -50 -31 -70
l-16 -36 45 -47 c68 -69 89 -169 32 -147 -13 5 -15 14 -10 48 6 40 4 45 -34
82 l-40 39 -22 -49 c-86 -199 -119 -295 -119 -349 l0 -55 105 0 105 0 1 28 c1
15 1 33 0 40 -1 6 3 12 9 12 6 0 10 -34 10 -91 0 -59 -4 -88 -10 -84 -6 4 -10
12 -9 18 1 7 1 24 0 40 l-1 27 -104 0 -105 0 -3 -92 c-4 -120 -1 -146 20 -151
16 -4 16 -5 0 -6 -11 -1 -15 -6 -12 -16 5 -12 25 -15 89 -15 77 0 85 2 103 25
20 26 42 33 42 15 0 -6 -12 -22 -27 -35 -25 -22 -38 -24 -111 -25 l-82 0 6
-27 c3 -16 21 -74 40 -131 19 -56 34 -109 34 -118 0 -8 10 -19 23 -24 14 -6
17 -9 6 -9 -12 -1 -15 -8 -11 -26 4 -25 5 -25 111 -25 l106 0 147 148 c81 81
152 159 157 175 12 31 23 34 41 12 10 -12 10 -18 0 -30 -7 -8 -18 -15 -25 -15
-7 0 -82 -67 -166 -150 l-154 -150 -102 0 c-83 0 -103 -3 -103 -14 0 -37 27
-45 140 -43 l110 2 180 180 c99 99 180 187 180 196 0 9 7 22 16 29 12 11 18
11 31 -2 17 -18 10 -36 -18 -46 -10 -4 -101 -89 -202 -190 l-184 -182 -121 0
-120 0 -6 -37 c-3 -21 -8 -75 -11 -120 l-6 -82 53 -4 53 -3 -52 -2 -52 -2 -7
-45 c-9 -65 1 -160 21 -193 9 -15 55 -64 103 -109 l87 -83 5 58 4 57 6 -70 c3
-48 9 -69 18 -67 6 1 12 -4 12 -12 0 -8 9 -21 21 -29 11 -8 57 -50 102 -93
319 -303 327 -310 377 -330 46 -19 62 -18 370 22 141 18 185 33 229 78 61 63
62 70 60 477 l-1 369 -41 0 c-38 0 -48 -6 -122 -77 l-80 -78 80 83 c75 78 82
82 123 82 l43 0 -3 118 -3 117 -25 -4 c-13 -1 -31 -12 -38 -22 -7 -10 -18 -19
-24 -19 -6 0 -4 8 5 18 10 10 17 21 17 24 0 13 -47 -6 -75 -31 l-30 -26 23 26
c39 45 17 54 -25 9 -12 -14 -23 -20 -23 -13 0 6 5 15 10 18 20 12 9 21 -28 21
-20 0 -49 4 -64 7 -25 7 -36 0 -94 -55 l-65 -63 2 -140 c2 -128 1 -140 -16
-140 -16 0 -17 13 -16 144 l2 145 70 74 c69 72 70 74 53 93 -10 11 -19 30 -21
41 -5 34 -11 34 -45 2 l-32 -29 32 38 c31 36 40 57 25 57 -4 0 -32 -24 -63
-52 -40 -38 -36 -33 13 18 57 59 68 76 65 100 -3 29 -3 29 -23 9 -57 -56 -82
-72 -32 -20 45 48 57 67 57 93 l0 32 -87 0 -88 0 -240 -238 -240 -237 240 243
240 242 87 0 88 0 0 35 c0 29 -4 35 -22 36 -17 1 -19 2 -6 6 22 6 36 52 18 63
-9 5 -9 9 -1 14 17 11 14 66 -4 66 -8 0 -15 5 -15 10 0 6 7 10 15 10 10 0 15
10 15 29 0 29 -2 30 -52 34 l-53 3 53 2 c48 2 52 4 52 27 0 21 -5 25 -31 25
-25 0 -44 13 -98 67 l-66 66 67 -61 c65 -61 80 -68 112 -56 19 7 22 54 3 54
-7 0 -37 26 -67 57 l-55 57 58 -52 c32 -29 62 -52 67 -52 5 0 8 15 8 33 -1 23
-12 44 -44 79 l-44 47 0 108 0 108 115 115 c63 62 115 123 117 133 5 31 34 45
54 25 20 -20 3 -61 -22 -51 -11 4 -51 -29 -130 -108 l-114 -114 0 -105 0 -106
35 -34 35 -34 0 60 c0 54 3 63 30 89 22 21 28 34 24 52 -5 18 -2 23 14 23 12
0 24 -5 27 -10 4 -6 12 -7 18 -3 7 4 67 6 134 4 l121 -3 1 306 1 306 -34 0
c-19 0 -37 3 -40 8 -2 4 13 6 35 4 l39 -4 0 208 c0 115 -5 225 -10 245 -11 40
-65 101 -110 124 -44 23 -130 29 -162 11z m-71 -88 c-3 -7 -5 -2 -5 12 0 14 2
19 5 13 2 -7 2 -19 0 -25z m0 -205 c-2 -32 -3 -6 -3 57 0 63 1 89 3 58 2 -32
2 -84 0 -115z m-77 52 c13 -14 21 -25 18 -25 -2 0 -15 11 -28 25 -13 14 -21
25 -18 25 2 0 15 -11 28 -25z m190 -62 c-4 -42 -5 -44 -8 -15 -3 30 2 62 10
62 2 0 1 -21 -2 -47z m-355 -83 c10 -11 16 -20 13 -20 -3 0 -13 9 -23 20 -10
11 -16 20 -13 20 3 0 13 -9 23 -20z m386 -1 c17 -32 8 -207 -11 -219 -24 -15
-205 -12 -218 3 -13 15 -18 192 -7 220 6 15 22 17 116 17 100 0 109 -2 120
-21z m134 1 c-14 -15 -29 -20 -64 -18 l-46 2 47 3 c25 2 52 11 58 19 7 7 15
14 18 14 3 0 -3 -9 -13 -20z m-408 -16 c-3 -3 -12 -4 -19 -1 -8 3 -5 6 6 6 11
1 17 -2 13 -5z m-66 -31 c13 -16 12 -17 -3 -4 -17 13 -22 21 -14 21 2 0 10 -8
17 -17z m69 -13 c0 -5 -5 -10 -11 -10 -5 0 -7 5 -4 10 3 6 8 10 11 10 2 0 4
-4 4 -10z m333 -8 c-18 -3 -23 -10 -24 -35 l-2 -32 -6 35 c-9 45 -7 48 26 41
25 -5 26 -6 6 -9z m80 1 c-7 -2 -19 -2 -25 0 -7 3 -2 5 12 5 14 0 19 -2 13 -5z
m-403 -69 c0 -21 -4 -33 -10 -29 -5 3 -10 17 -10 31 l0 24 -127 2 -128 2 130
6 c72 3 133 4 138 2 4 -2 7 -19 7 -38z m57 -266 c-2 -29 -3 -6 -3 52 0 58 1
81 3 53 2 -29 2 -77 0 -105z m-109 -223 l-153 -150 148 150 147 150 2 115 2
115 3 -115 4 -114 -153 -151z m199 343 c-3 -7 -5 -2 -5 12 0 14 2 19 5 13 2
-7 2 -19 0 -25z m93 28 c0 -3 -4 -8 -10 -11 -5 -3 -10 -1 -10 4 0 6 5 11 10
11 6 0 10 -2 10 -4z m-422 -33 c-3 -11 -10 -16 -19 -13 -8 2 -63 7 -124 10
l-110 5 115 5 c63 3 121 7 128 8 8 1 12 -5 10 -15z m149 -11 c9 -5 10 -30 5
-90 l-7 -83 -114 -113 -113 -114 -71 -1 c-39 -1 -78 -3 -87 -6 -22 -7 -43 10
-38 31 3 17 12 19 93 16 l90 -3 104 104 104 105 -5 70 c-6 80 6 105 39 84z
m-232 -12 c11 -18 -5 -31 -26 -20 -11 6 -17 15 -14 21 8 12 32 12 40 -1z
m-268 -46 c-3 -3 -12 -4 -19 -1 -8 3 -5 6 6 6 11 1 17 -2 13 -5z m80 0 c-3 -3
-12 -4 -19 -1 -8 3 -5 6 6 6 11 1 17 -2 13 -5z m308 -54 c0 -8 -11 -20 -24
-26 -13 -7 -56 -44 -95 -82 -54 -54 -79 -71 -106 -74 -19 -3 -43 -8 -52 -13
-12 -5 -20 -2 -24 10 -9 23 12 43 28 27 7 -7 26 -12 44 -12 26 0 44 13 105 75
40 40 77 84 81 95 9 24 43 24 43 0z m219 -179 c-65 -64 -103 -99 -84 -77 19
21 70 72 113 114 53 52 77 84 78 102 l2 25 4 -24 c4 -20 -15 -44 -113 -140z
m-619 138 c11 -16 1 -19 -13 -3 -7 8 -8 14 -3 14 5 0 13 -5 16 -11z m775 -22
c0 -1 -62 -63 -137 -137 l-138 -135 135 138 c125 127 140 142 140 134z m-700
-45 c0 -21 -32 -9 -41 14 -7 20 -5 20 17 10 13 -6 24 -17 24 -24z m600 35 c0
-1 -57 -58 -127 -127 l-128 -125 125 128 c116 118 130 132 130 124z m-672 -57
c7 0 12 -7 12 -15 0 -27 -24 -15 -49 23 l-23 37 24 -22 c13 -13 30 -23 36 -23z
m-133 2 c-3 -3 -11 0 -18 7 -9 10 -8 11 6 5 10 -3 15 -9 12 -12z m83 -69 c2
-8 -5 -13 -17 -13 -12 0 -21 6 -21 16 0 18 31 15 38 -3z m856 -55 c-34 -35
-64 -71 -68 -81 -7 -22 -30 -18 -34 6 -2 11 3 17 15 17 10 0 45 27 78 60 33
33 62 60 64 60 3 0 -22 -28 -55 -62z m-374 19 c0 -2 -9 -12 -20 -22 -24 -21
-27 -14 -4 9 15 15 24 20 24 13z m425 -38 c-25 -23 -45 -50 -45 -61 0 -13 -6
-18 -17 -16 -25 5 -30 38 -6 38 11 0 37 18 58 40 21 22 43 40 47 40 4 0 -13
-19 -37 -41z m46 -26 c-5 -10 -12 -26 -15 -36 -3 -10 -13 -17 -23 -15 -27 5
-27 27 0 37 14 6 28 15 32 20 11 18 16 12 6 -6z m-1186 -23 c10 -11 16 -20 13
-20 -3 0 -13 9 -23 20 -10 11 -16 20 -13 20 3 0 13 -9 23 -20z m775 17 c0 -2
-10 -12 -22 -23 l-23 -19 19 23 c18 21 26 27 26 19z m-165 -27 c-4 -6 -57 -9
-133 -8 l-127 2 130 6 c72 3 131 7 133 8 2 1 0 -2 -3 -8z m-4 -54 c-9 -11 -7
-15 9 -19 12 -3 20 -13 20 -25 0 -23 -21 -34 -41 -21 -8 5 -50 9 -93 9 -91 0
-124 -16 -105 -52 12 -21 -3 -48 -27 -48 -21 0 -26 18 -15 53 18 55 41 67 129
68 42 0 86 4 97 9 11 5 16 9 11 9 -9 1 12 31 21 31 3 0 0 -6 -6 -14z m341 -46
c9 -17 13 -30 8 -30 -6 0 -10 5 -10 10 0 6 -9 10 -20 10 -13 0 -20 7 -20 20 0
30 23 24 42 -10z m-205 -37 c-3 -10 -5 -4 -5 12 0 17 2 24 5 18 2 -7 2 -21 0
-30z m-40 -65 c-2 -13 -4 -3 -4 22 0 25 2 35 4 23 2 -13 2 -33 0 -45z m-600
-15 c-3 -10 -5 -4 -5 12 0 17 2 24 5 18 2 -7 2 -21 0 -30z m255 -60 c16 -14
18 -33 18 -163 0 -123 -3 -150 -16 -161 -25 -21 -297 -17 -318 4 -13 13 -16
42 -16 158 0 188 -9 179 173 179 117 0 144 -3 159 -17z m118 -62 l-55 -6 -2
-37 -1 -38 67 0 66 0 135 -137 135 -138 -136 133 -135 133 -65 -3 c-58 -3 -64
-5 -67 -26 -2 -13 2 -30 8 -38 10 -11 9 -14 -4 -14 -14 0 -16 14 -16 90 l0 90
63 -2 62 -1 -55 -6z m85 -1 c3 -6 -1 -7 -9 -4 -18 7 -21 14 -7 14 6 0 13 -4
16 -10z m145 -145 c69 -69 122 -125 120 -125 -3 0 -61 56 -130 125 -69 69
-122 125 -120 125 3 0 61 -56 130 -125z m50 20 c13 -14 21 -25 18 -25 -2 0
-15 11 -28 25 -13 14 -21 25 -18 25 2 0 15 -11 28 -25z m51 -52 c13 -16 12
-17 -3 -4 -10 7 -18 15 -18 17 0 8 8 3 21 -13z m-190 -51 c8 2 15 -7 17 -20 3
-20 0 -23 -20 -20 -15 2 -24 11 -26 26 -2 12 -8 22 -13 22 -5 0 -9 5 -9 12 0
6 8 4 19 -6 10 -9 25 -16 32 -14z m-761 14 c0 -2 -8 -10 -17 -17 -16 -13 -17
-12 -4 4 13 16 21 21 21 13z m776 -113 c12 12 33 -27 22 -40 -12 -15 -38 -5
-38 15 0 9 -24 41 -52 72 l-53 55 57 -54 c32 -30 61 -52 64 -48z m234 73 c0
-3 -4 -8 -10 -11 -5 -3 -10 -1 -10 4 0 6 5 11 10 11 6 0 10 -2 10 -4z m-1010
-15 c0 -5 -11 -16 -24 -24 -23 -16 -23 -15 -12 8 10 24 36 35 36 16z m38 -43
c-6 -18 -28 -21 -28 -4 0 9 7 16 16 16 9 0 14 -5 12 -12z m209 -4 c-3 -3 -12
-4 -19 -1 -8 3 -5 6 6 6 11 1 17 -2 13 -5z m146 -1 c-24 -2 -62 -2 -85 0 -24
2 -5 4 42 4 47 0 66 -2 43 -4z m95 0 c-10 -2 -26 -2 -35 0 -10 3 -2 5 17 5 19
0 27 -2 18 -5z m-418 -37 c0 -7 -9 -16 -19 -19 -17 -4 -18 -2 -8 14 14 22 27
25 27 5z m-57 -33 c-7 -2 -19 -2 -25 0 -7 3 -2 5 12 5 14 0 19 -2 13 -5z m367
-6 c0 -1 -51 -52 -112 -112 l-113 -110 110 113 c102 104 115 117 115 109z
m-150 -82 c-35 -36 -71 -65 -80 -64 -10 0 -9 3 5 9 11 4 45 33 75 64 30 31 57
56 59 56 3 0 -24 -29 -59 -65z m660 52 c0 -1 -87 -88 -192 -192 l-193 -190
190 193 c176 178 195 197 195 189z m-500 -42 c-18 -19 -36 -32 -39 -29 -5 5
57 63 68 64 3 0 -10 -16 -29 -35z m90 -16 c0 -11 -10 -23 -22 -28 -13 -5 -74
-59 -136 -121 -85 -84 -121 -113 -145 -117 -18 -3 -29 -2 -26 1 3 3 15 7 28 9
27 4 251 225 251 247 0 22 20 40 36 33 8 -3 14 -14 14 -24z m480 -54 c0 -9 -8
-18 -17 -22 -10 -3 -114 -101 -230 -217 -191 -189 -213 -214 -213 -244 0 -18
6 -41 12 -52 10 -15 10 -22 1 -31 -18 -18 -47 -3 -37 19 4 9 9 38 12 63 4 45
9 51 213 255 115 115 209 217 209 226 0 13 8 18 25 18 16 0 25 -6 25 -15z
m-705 -65 c-16 -16 -33 -30 -39 -30 -9 0 53 59 63 60 3 0 -8 -13 -24 -30z
m695 -93 c0 -1 -33 -34 -72 -72 l-73 -70 70 73 c64 67 75 77 75 69z m2 -130
l-42 -43 2 -244 3 -244 25 -6 c29 -7 38 -35 15 -44 -22 -8 -35 1 -35 24 0 10
-4 22 -10 25 -6 4 -10 97 -10 248 l0 241 42 43 c23 24 44 43 47 43 3 0 -14
-19 -37 -43z m-22 30 c0 -2 -15 -16 -32 -33 l-33 -29 29 33 c28 30 36 37 36
29z m-450 -40 c0 -1 -33 -34 -72 -72 l-73 -70 70 73 c64 67 75 77 75 69z
m-220 -75 c0 -14 -11 -21 -26 -15 -8 3 -11 9 -8 14 7 11 34 12 34 1z m607 -39
c-3 -10 -5 -4 -5 12 0 17 2 24 5 18 2 -7 2 -21 0 -30z m334 4 c-10 -9 -11 -8
-5 6 3 10 9 15 12 12 3 -3 0 -11 -7 -18z m59 20 c0 -1 -39 -41 -87 -87 l-88
-85 85 88 c79 81 90 92 90 84z m-1050 -48 c0 -5 -7 -9 -15 -9 -15 0 -20 12 -9
23 8 8 24 -1 24 -14z m1089 18 c-2 -1 -15 -11 -29 -22 l-25 -20 19 23 c11 12
24 22 29 22 6 0 8 -1 6 -3z m-119 -11 c0 -2 -8 -10 -17 -17 -16 -13 -17 -12
-4 4 13 16 21 21 21 13z m-1010 -54 c0 -14 -11 -21 -26 -15 -8 3 -11 9 -8 14
7 11 34 12 34 1z m1060 -1 c0 -5 -15 -20 -32 -32 l-33 -22 29 31 c32 34 36 37
36 23z m-110 -4 c0 -2 -10 -12 -22 -23 l-23 -19 19 23 c18 21 26 27 26 19z
m-1003 -63 c-3 -4 -14 -3 -24 0 -15 6 -15 8 -3 16 16 10 39 -4 27 -16z m230
-16 c-3 -8 -6 -5 -6 6 -1 11 2 17 5 13 3 -3 4 -12 1 -19z m796 -13 c-3 -9 -8
-14 -10 -11 -3 3 -2 9 2 15 9 16 15 13 8 -4z m-86 -67 c-2 -13 -4 -3 -4 22 0
25 2 35 4 23 2 -13 2 -33 0 -45z m-599 -40 c3 -74 2 -78 -21 -83 -13 -4 -48
-5 -78 -3 l-54 3 -5 68 c-7 95 -3 98 83 95 l72 -3 3 -77z m892 69 c0 -2 -17
-19 -37 -38 l-38 -34 34 38 c33 34 41 42 41 34z m-611 -81 c-2 -2 -13 8 -23
22 l-19 27 24 -22 c12 -12 21 -24 18 -27z m-146 27 c-24 -2 -62 -2 -85 0 -24
2 -5 4 42 4 47 0 66 -2 43 -4z m488 -106 c26 -24 24 -37 -5 -37 -31 0 -54 26
-38 42 7 7 13 30 14 53 l1 40 4 -40 c3 -22 13 -48 24 -58z m-861 79 c0 -2 -15
-6 -34 -8 -19 -2 -32 0 -30 4 5 8 64 12 64 4z m63 -3 c-7 -2 -19 -2 -25 0 -7
3 -2 5 12 5 14 0 19 -2 13 -5z m454 -110 c-2 -21 -4 -6 -4 32 0 39 2 55 4 38
2 -18 2 -50 0 -70z m581 83 c-7 -8 -15 -12 -17 -11 -5 6 10 25 20 25 5 0 4 -6
-3 -14z m-81 -63 c-2 -16 -4 -5 -4 22 0 28 2 40 4 28 2 -13 2 -35 0 -50z m-93
2 c3 -8 1 -15 -4 -15 -6 0 -10 7 -10 15 0 8 2 15 4 15 2 0 6 -7 10 -15z m-717
-17 c-3 -8 -6 -5 -6 6 -1 11 2 17 5 13 3 -3 4 -12 1 -19z m860 0 c-3 -8 -6 -5
-6 6 -1 11 2 17 5 13 3 -3 4 -12 1 -19z m-92 2 c3 -5 1 -10 -4 -10 -6 0 -11 5
-11 10 0 6 2 10 4 10 3 0 8 -4 11 -10z m110 -47 c11 -28 6 -205 -6 -220 -17
-20 -202 -18 -223 3 -20 20 -23 203 -4 222 8 8 49 12 119 12 92 0 108 -2 114
-17z m-337 -83 c74 0 75 0 75 -45 0 -66 0 -65 -50 -63 l-48 1 43 4 c34 3 42 8
42 24 0 10 -6 19 -12 20 -10 0 -10 2 0 6 6 2 12 13 12 24 0 17 -8 19 -68 19
l-68 0 -49 53 -50 52 50 -47 51 -48 72 0z m-207 43 c13 -16 12 -17 -3 -4 -10
7 -18 15 -18 17 0 8 8 3 21 -13z m-445 -2 c-3 -5 4 -11 15 -14 18 -5 19 -8 9
-27 l-12 -22 -23 23 c-16 17 -20 28 -13 37 12 14 32 17 24 3z m139 -11 c10
-11 16 -20 13 -20 -3 0 -13 9 -23 20 -10 11 -16 20 -13 20 3 0 13 -9 23 -20z
m582 14 c-3 -3 -12 -4 -19 -1 -8 3 -5 6 6 6 11 1 17 -2 13 -5z m300 -86 c-2
-18 -4 -6 -4 27 0 33 2 48 4 33 2 -15 2 -42 0 -60z m-606 35 c13 -16 12 -17
-3 -4 -17 13 -22 21 -14 21 2 0 10 -8 17 -17z m-336 -13 c3 -5 0 -18 -7 -29
-12 -19 -12 -19 -26 0 -7 10 -10 24 -7 29 8 13 32 13 40 0z m51 -55 c3 -8 -1
-24 -9 -35 -15 -21 -15 -21 -21 5 -10 39 17 66 30 30z m359 -5 c10 -11 16 -20
13 -20 -3 0 -13 9 -23 20 -10 11 -16 20 -13 20 3 0 13 -9 23 -20z m128 -27
c-7 -2 -19 -2 -25 0 -7 3 -2 5 12 5 14 0 19 -2 13 -5z m-98 -78 c0 -12 -7 -20
-17 -20 -10 0 -46 -27 -80 -60 l-63 -60 63 65 c34 36 62 74 62 84 0 11 6 16
18 14 9 -2 17 -12 17 -23z m335 5 c0 -5 -2 -10 -4 -10 -3 0 -8 5 -11 10 -3 6
-1 10 4 10 6 0 11 -4 11 -10z m50 -5 c0 -8 -2 -15 -4 -15 -2 0 -6 7 -10 15 -3
8 -1 15 4 15 6 0 10 -7 10 -15z m47 -47 c-2 -13 -4 -3 -4 22 0 25 2 35 4 23 2
-13 2 -33 0 -45z m-380 5 c3 -7 -8 -18 -24 -23 -15 -6 -55 -37 -88 -68 l-60
-57 61 65 c34 36 64 73 68 83 7 20 37 20 43 0z m48 -53 c0 -8 -10 -16 -22 -18
-18 -3 -23 2 -23 18 0 16 5 21 23 18 12 -2 22 -10 22 -18z m155 16 c0 -2 -8
-10 -17 -17 -16 -13 -17 -12 -4 4 13 16 21 21 21 13z m40 -19 c0 -2 -12 -14
-27 -28 l-28 -24 24 28 c23 25 31 32 31 24z m-300 -80 c0 -2 -12 -14 -27 -28
l-28 -24 24 28 c23 25 31 32 31 24z m220 0 c0 -2 -12 -14 -27 -28 l-28 -24 24
28 c23 25 31 32 31 24z"/>
<path d="M3157 4586 c-54 -20 -102 -60 -123 -103 -18 -36 -19 -72 -22 -570
l-3 -533 68 0 c77 1 100 13 109 58 10 48 -1 74 -60 140 -30 33 -57 70 -61 81
-13 41 25 80 148 155 41 25 36 58 -16 109 -24 23 -66 53 -93 67 -34 17 -49 31
-49 45 0 33 40 30 88 -6 171 -131 192 -208 71 -269 -50 -26 -104 -72 -104 -88
0 -6 22 -34 50 -64 69 -73 84 -108 76 -175 -6 -53 -6 -53 22 -53 15 0 33 -5
39 -11 7 -7 19 -2 40 18 41 38 60 77 74 157 16 96 0 207 -25 167 -13 -20 -56
2 -56 28 0 24 100 118 135 127 40 10 157 -3 173 -20 17 -16 7 -56 -13 -56 -8
0 -33 9 -55 21 -29 15 -50 19 -74 15 -48 -9 -58 -24 -45 -70 6 -21 11 -75 12
-120 l2 -83 75 34 c129 59 244 77 321 49 49 -17 149 -97 149 -118 0 -15 -27
-38 -44 -38 -3 0 -17 18 -31 40 -32 51 -89 80 -155 80 -44 0 -51 -2 -46 -17
18 -60 28 -168 23 -244 -7 -104 -34 -176 -84 -219 -53 -47 -100 -37 -180 38
-37 35 -40 44 -17 67 19 19 44 16 54 -5 21 -45 29 -56 53 -70 36 -20 70 0 98
59 28 58 36 224 17 316 -12 55 -15 60 -38 57 -14 -1 -65 -22 -115 -46 l-90
-44 -33 -74 c-17 -40 -32 -80 -32 -90 0 -12 -6 -15 -21 -11 -20 6 -21 5 -6
-18 13 -20 16 -61 18 -228 l1 -203 29 -55 c40 -75 40 -159 0 -297 -16 -55 -32
-114 -35 -131 -3 -16 -12 -49 -20 -72 -26 -70 -31 -162 -12 -226 9 -31 24 -60
33 -65 11 -7 14 -17 9 -36 -5 -22 -12 -27 -34 -24 -24 3 -29 10 -44 68 -11 38
-18 101 -18 151 l-1 87 -137 -2 -137 -1 -3 -485 c-2 -332 1 -497 8 -523 14
-49 68 -109 117 -130 35 -15 401 -67 474 -67 42 0 104 31 149 73 607 568 639
599 654 637 20 50 20 87 1 316 -16 203 -18 188 53 414 82 257 81 255 73 450
l-7 175 -106 252 c-58 139 -113 264 -122 277 -18 28 -110 104 -237 194 -140
100 -175 135 -200 201 -20 50 -26 58 -40 50 -29 -15 -36 -11 -67 45 -41 72
-102 116 -160 116 -58 0 -90 -16 -195 -100 -147 -116 -193 -108 -272 49 -24
49 -25 55 -11 70 21 21 48 5 59 -35 14 -47 41 -97 58 -107 27 -17 61 -1 149
69 100 79 149 103 208 104 59 0 111 -29 171 -96 28 -32 53 -55 56 -53 6 7 -36
132 -58 175 -25 49 -69 75 -282 169 -212 94 -261 106 -328 81z m673 -609 c46
-18 55 -26 55 -47 0 -35 -29 -37 -66 -6 -17 14 -39 26 -49 26 -10 0 -25 3 -34
6 -27 10 -19 -26 24 -102 41 -75 93 -129 116 -120 21 8 37 -30 24 -54 -13 -24
-19 -25 -50 -3 -65 45 -141 150 -171 236 -15 44 -24 45 -148 22 -45 -9 -112
-15 -149 -13 -64 3 -67 4 -70 30 -4 34 26 45 67 24 26 -14 39 -14 123 0 51 9
95 18 97 20 2 2 43 4 90 4 65 -1 99 -6 141 -23z m182 -129 c21 -17 92 -115
112 -156 32 -62 38 -130 20 -214 -18 -84 -35 -109 -62 -91 -25 15 -26 39 -2
71 31 41 36 109 15 174 -20 62 -73 138 -109 158 -28 14 -33 39 -14 58 15 15
20 15 40 0z m-145 -450 c72 -113 157 -284 189 -380 l28 -88 52 0 c90 0 128
-52 150 -203 4 -30 16 -60 32 -79 29 -34 22 -60 -17 -66 -28 -4 -43 32 -65
158 -22 125 -38 145 -113 141 -20 -1 -23 -6 -23 -45 0 -95 -12 -167 -31 -176
-45 -24 -68 18 -38 67 18 29 21 45 17 106 -3 40 -13 98 -22 130 -15 50 -23 60
-58 78 -50 26 -118 28 -153 5 -32 -21 -65 -13 -65 17 0 41 11 45 118 43 56 0
102 0 102 2 0 9 -86 171 -129 241 -50 83 -57 101 -44 114 14 15 25 4 70 -65z
m476 51 c7 -12 1 -29 -26 -71 -27 -43 -53 -66 -111 -103 -84 -52 -96 -67 -96
-117 0 -53 -38 -78 -59 -40 -25 47 45 154 129 197 55 28 100 77 100 109 0 43
41 59 63 25z m-28 -345 c47 -22 79 -78 106 -189 12 -49 30 -105 41 -122 22
-37 16 -73 -11 -73 -28 0 -36 16 -59 122 -43 192 -70 231 -159 230 -60 -1 -93
19 -72 44 17 20 99 14 154 -12z m-671 -30 c10 -4 16 -18 16 -36 0 -33 23 -82
54 -116 32 -36 76 -56 136 -62 50 -4 55 -7 55 -29 0 -32 -27 -48 -57 -34 -80
38 -116 44 -178 32 -33 -6 -86 -27 -117 -45 -66 -40 -73 -41 -73 -11 0 29 65
72 143 94 61 17 66 23 41 44 -8 7 -26 34 -40 60 -13 26 -28 50 -34 54 -16 10
-11 43 8 48 27 7 29 7 46 1z m159 -426 c85 -26 148 -121 133 -202 -9 -46 -63
-102 -113 -115 -52 -15 -118 -13 -182 4 -30 8 -58 12 -61 10 -4 -3 -10 -17
-13 -32 -10 -51 -107 -213 -127 -213 -53 0 -60 43 -12 71 16 9 41 43 62 84 57
113 54 233 -8 327 -21 32 -22 40 -12 53 8 9 25 15 39 13 22 -3 27 -10 33 -45
4 -23 12 -51 18 -63 6 -11 14 -46 18 -78 l7 -57 50 -17 c99 -34 202 -19 239
34 36 51 4 136 -64 170 -39 20 -121 24 -151 7 -38 -20 -85 21 -56 50 15 15
150 14 200 -1z m357 -185 c51 -33 78 -64 73 -83 -9 -32 -36 -34 -60 -3 -13 15
-23 31 -23 34 0 4 -13 12 -30 19 -25 10 -34 10 -56 -5 -31 -20 -54 -71 -54
-119 l0 -34 58 0 c57 0 111 -16 227 -65 49 -21 60 -30 60 -49 0 -33 -37 -35
-77 -4 -56 42 -136 69 -208 69 -54 1 -79 -5 -146 -36 -85 -38 -123 -44 -186
-27 -44 13 -53 32 -29 61 l18 22 31 -21 c39 -29 68 -28 141 4 59 26 61 28 61
63 0 63 27 137 61 165 36 31 101 35 139 9z m4 -349 c32 -31 16 -115 -36 -191
-35 -51 -35 -79 -3 -105 41 -32 56 -72 54 -139 -2 -54 -5 -60 -26 -65 -37 -10
-50 10 -34 49 21 50 16 76 -23 116 -55 56 -56 87 -7 169 40 67 51 105 31 117
-14 8 -13 38 2 53 16 16 23 15 42 -4z m-202 -134 c-8 -178 -44 -295 -101 -324
-39 -20 -125 -21 -144 -1 -13 13 -19 9 -45 -33 -16 -26 -38 -62 -48 -80 -15
-25 -24 -32 -44 -30 -37 4 -36 32 3 75 84 93 114 208 68 257 -51 55 -99 54
-309 -3 -116 -32 -238 -47 -257 -31 -17 14 -20 36 -5 45 6 4 52 8 103 9 67 3
122 12 202 36 61 17 133 32 161 33 62 1 120 -27 152 -74 20 -29 23 -44 20 -97
-3 -54 -2 -61 12 -57 9 3 33 -1 52 -10 33 -13 38 -13 61 5 40 31 58 101 64
238 l6 123 26 -3 c26 -3 26 -4 23 -78z m-830 -289 c86 -86 253 -96 359 -21 36
27 69 19 69 -16 0 -14 -6 -26 -12 -28 -7 -2 -52 -16 -100 -31 -124 -39 -191
-33 -307 28 -86 45 -103 65 -81 92 18 22 29 19 72 -24z m856 -138 c-2 -21 -10
-29 -34 -36 -18 -5 -74 -42 -125 -83 -240 -189 -382 -208 -651 -85 -66 29 -75
41 -62 75 6 16 29 12 55 -11 28 -23 132 -70 187 -83 31 -7 87 -11 133 -8 98 6
190 48 294 136 106 89 156 122 182 122 21 0 24 -4 21 -27z"/>
<path d="M2387 3321 l42 -41 95 3 c115 4 139 16 35 19 -100 2 -95 0 -121 25
-13 13 -39 26 -58 29 l-35 7 42 -42z"/>
<path d="M2430 3350 c0 -20 41 -30 119 -30 74 0 81 2 81 20 0 19 -7 20 -100
20 -58 0 -100 -4 -100 -10z"/>
<path d="M2671 3323 c5 -21 9 -41 9 -45 0 -15 41 -8 46 7 5 12 10 13 20 4 11
-9 14 -8 14 2 1 11 3 11 13 -1 18 -22 37 -23 53 -3 9 13 13 14 14 4 0 -11 3
-11 15 -1 12 10 16 9 21 -4 7 -18 42 -16 54 3 6 10 10 9 18 -5 12 -22 18 -12
25 44 l4 32 -158 0 -157 0 9 -37z"/>
<path d="M3010 3350 c0 -5 14 -10 30 -10 26 0 37 -9 28 -24 -2 -2 6 -13 16
-25 18 -20 20 -20 32 -3 13 16 13 16 14 0 0 -13 8 -18 32 -18 24 0 40 -9 68
-42 37 -40 39 -41 69 -29 17 8 37 11 46 7 12 -4 15 3 15 37 0 36 -6 47 -40 80
-40 37 -100 52 -100 25 0 -6 -7 -20 -16 -29 -13 -14 -21 -16 -36 -8 -11 6 -26
8 -34 5 -16 -6 -19 10 -4 19 6 4 8 11 5 16 -8 12 -125 12 -125 -1z"/>
<path d="M2325 3330 c-3 -6 12 -29 34 -52 38 -41 41 -42 67 -28 24 14 25 15 7
20 -11 3 -33 20 -48 38 -27 32 -49 40 -60 22z"/>
<path d="M2292 3298 c-7 -7 -12 -41 -12 -82 0 -38 3 -66 6 -63 10 10 44 -12
44 -29 0 -9 7 -14 18 -12 12 2 19 16 23 46 3 24 11 47 18 52 10 5 1 20 -31 54
-49 51 -49 51 -66 34z"/>
<path d="M3302 3123 l-33 -4 3 -91 3 -91 36 -23 37 -23 7 106 c5 79 4 107 -5
113 -9 6 -9 9 1 13 16 6 4 6 -49 0z"/>
<path d="M2316 3091 c-4 -7 -5 -15 -2 -18 9 -9 19 4 14 18 -4 11 -6 11 -12 0z"/>
<path d="M2350 3084 c0 -8 5 -12 10 -9 6 3 10 10 10 16 0 5 -4 9 -10 9 -5 0
-10 -7 -10 -16z"/>
<path d="M2280 3035 c0 -16 7 -24 25 -27 22 -5 25 -2 25 22 0 23 -4 28 -25 28
-19 0 -25 -6 -25 -23z"/>
<path d="M2344 3046 c-6 -17 2 -36 17 -36 12 0 12 37 -1 45 -6 3 -13 -1 -16
-9z"/>
<path d="M2280 2966 c0 -24 3 -26 46 -26 41 0 45 2 42 23 -2 18 -10 23 -45 25
-40 3 -43 1 -43 -22z"/>
<path d="M2295 2922 c-3 -3 -5 -16 -5 -29 0 -20 5 -23 40 -23 30 0 40 4 40 16
0 14 -2 15 -16 3 -15 -12 -16 -11 -10 7 5 18 2 22 -18 26 -14 3 -28 3 -31 0z"/>
<path d="M3271 2838 c0 -21 1 -21 8 -4 5 14 10 16 15 7 4 -6 1 -22 -8 -35 -11
-18 -15 -56 -15 -169 0 -149 -7 -221 -21 -212 -4 3 -22 -8 -40 -25 -29 -27
-38 -29 -113 -32 l-82 -3 -3 -42 -3 -43 139 0 c124 0 141 2 147 18 4 9 19 58
33 107 24 80 27 107 27 244 l-1 153 -32 29 c-39 35 -52 37 -51 7z"/>
<path d="M2292 2818 c2 -28 7 -33 28 -33 22 0 25 4 22 30 -3 29 -3 29 12 10
15 -20 15 -20 16 3 0 19 -5 22 -41 22 -39 0 -40 -1 -37 -32z"/>
<path d="M2292 2743 c4 -36 33 -42 57 -11 24 29 18 38 -25 38 -33 0 -35 -2
-32 -27z"/>
<path d="M3383 2690 c0 -30 2 -43 4 -27 2 15 2 39 0 55 -2 15 -4 2 -4 -28z"/>
<path d="M2302 2691 c-19 -12 -11 -55 11 -59 14 -3 17 4 17 32 0 37 -5 42 -28
27z"/>
<path d="M2347 2693 c-13 -12 -7 -51 9 -57 12 -5 14 0 10 25 -5 35 -10 42 -19
32z"/>
<path d="M2291 2598 c-13 -35 -2 -48 40 -48 35 0 39 3 39 25 0 18 -7 28 -26
35 -37 14 -44 13 -53 -12z"/>
<path d="M2280 2505 c0 -35 0 -35 45 -35 45 0 45 0 45 35 0 35 0 35 -45 35
-45 0 -45 0 -45 -35z"/>
<path d="M2295 2450 c3 -6 0 -26 -7 -46 -15 -41 -4 -66 33 -74 15 -4 25 -14
27 -28 3 -19 9 -22 54 -22 41 0 48 3 39 13 -16 20 10 52 36 45 36 -10 15 25
-28 46 -21 11 -39 26 -39 34 0 7 -9 16 -20 19 -11 3 -20 9 -20 14 0 5 -18 9
-41 9 -24 0 -38 -4 -34 -10z"/>
<path d="M2601 2356 c-6 -7 -14 -27 -17 -44 -6 -29 -4 -32 20 -32 24 0 26 4
26 39 0 43 -12 58 -29 37z"/>
<path d="M2672 2325 l1 -45 147 0 147 0 1 45 0 45 -148 0 -148 0 0 -45z"/>
<path d="M2532 2338 c-7 -7 -12 -22 -12 -35 0 -18 6 -23 25 -23 26 0 29 9 19
48 -7 25 -15 27 -32 10z"/>
<path d="M2485 2290 c-3 -5 1 -10 10 -10 9 0 13 5 10 10 -3 6 -8 10 -10 10 -2
0 -7 -4 -10 -10z"/>
</g>
</svg>
